<svg xmlns:svg="http://www.w3.org/2000/svg" xmlns="http://www.w3.org/2000/svg" version="1.1" x="0" y="0" width="36" height="36" viewBox="0 0 36 36" xml:space="preserve"><style>.s0{fill:#ccc;}</style><g transform="matrix(0.07036376,0,0,0.07036376,0,3.8570612)" fill="#ccc"><path d="M498.2 68.2C489.3 59.3 478.5 54.8 465.9 54.8l-420.3 0C33.1 54.8 22.4 59.3 13.4 68.2 4.5 77.2 0 87.9 0 100.5l0 310.6c0 12.6 4.5 23.3 13.4 32.3 8.9 9 19.7 13.4 32.3 13.4l420.3 0c12.6 0 23.3-4.5 32.3-13.4 8.9-8.9 13.4-19.7 13.4-32.3l0-310.6C511.6 87.9 507.2 77.2 498.2 68.2Zm-23.1 342.9c0 2.5-0.9 4.6-2.7 6.4-1.8 1.8-3.9 2.7-6.4 2.7l-420.3 0c-2.5 0-4.6-0.9-6.4-2.7-1.8-1.8-2.7-3.9-2.7-6.4l0-219.3c6.1 6.9 12.7 13.1 19.7 18.8 51 39.2 91.6 71.4 121.6 96.5 9.7 8.2 17.6 14.6 23.7 19.1 6.1 4.6 14.3 9.2 24.7 13.8 10.4 4.7 20.1 7 29.3 7l0.3 0 0.3 0c9.1 0 18.9-2.3 29.3-7 10.4-4.7 18.6-9.3 24.7-13.8 6.1-4.6 14-10.9 23.7-19.1 30.1-25.1 70.6-57.3 121.6-96.5 7-5.7 13.6-12 19.7-18.8l0 219.3 0 0zm0-303.2 0 3.1c0 11.2-4.4 23.7-13.3 37.5-8.9 13.8-18.4 24.8-28.7 33-36.7 28.9-74.9 59.1-114.5 90.5-1.1 1-4.5 3.8-10 8.4-5.5 4.7-9.9 8.2-13.1 10.7-3.2 2.5-7.5 5.5-12.7 9-5.2 3.5-10 6.1-14.4 7.9-4.4 1.7-8.5 2.6-12.3 2.6l-0.3 0-0.3 0c-3.8 0-7.9-0.9-12.3-2.6-4.4-1.7-9.2-4.3-14.4-7.9-5.2-3.5-9.5-6.5-12.7-9-3.2-2.5-7.6-6-13.1-10.7-5.5-4.7-8.9-7.5-10-8.4-39.6-31.4-77.7-61.6-114.5-90.5-28-22.1-42-49.1-42-81.1 0-2.5 0.9-4.6 2.7-6.4 1.8-1.8 3.9-2.7 6.4-2.7l420.3 0c1.5 0.9 2.9 1.1 4 0.7 1.1-0.4 2 0.3 2.6 2.1 0.6 1.8 1.1 2.7 1.6 2.6 0.5-0.1 0.8 1.1 0.9 3.6 0.1 2.5 0.1 3.7 0.1 3.7l0 3.8 0 0z" fill="#ccc"/></g></svg>